<svg xmlns="http://www.w3.org/2000/svg" viewBox="0 0 420 300" fill="none" stroke="#3D3730">
  <!-- Smaller complementary cloud - slightly different shape -->
  <path d="M50,220 Q25,200 35,175 Q18,155 45,135 Q40,108 75,95 Q85,65 125,60 Q145,38 185,42 Q210,28 245,40 Q270,30 295,48 Q320,38 340,60 Q365,55 375,82 Q395,92 385,118 Q400,140 378,155 Q390,178 365,190 Q375,212 350,220 Z" stroke-width="1.3"/>
  <!-- Small secondary puff -->
  <path d="M155,42 Q168,28 188,32 Q200,22 218,30" stroke-width="0.8" opacity="0.55"/>
  <!-- Internal contour -->
  <path d="M85,172 Q140,158 210,162 Q290,158 350,165" stroke-width="0.45" opacity="0.22"/>
  <!-- Hatching lines -->
  <path d="M65,208 Q140,195 250,200 Q320,196 345,206" stroke-width="0.44" opacity="0.52"/>
  <path d="M60,194 Q145,180 255,184 Q325,180 355,192" stroke-width="0.42" opacity="0.48"/>
  <path d="M58,180 Q150,166 260,170 Q330,166 365,178" stroke-width="0.4" opacity="0.44"/>
  <path d="M62,166 Q155,153 265,156 Q332,153 370,163" stroke-width="0.38" opacity="0.4"/>
  <path d="M70,152 Q162,140 268,143 Q330,140 375,150" stroke-width="0.36" opacity="0.36"/>
  <path d="M78,140 Q168,128 270,131 Q328,128 378,137" stroke-width="0.34" opacity="0.33"/>
  <path d="M88,128 Q175,118 272,120 Q325,118 376,125" stroke-width="0.32" opacity="0.3"/>
  <path d="M100,116 Q185,108 275,110 Q320,108 372,114" stroke-width="0.3" opacity="0.27"/>
  <path d="M112,105 Q195,98 275,100 Q315,98 368,103" stroke-width="0.28" opacity="0.24"/>
  <path d="M128,94 Q205,88 272,90 Q310,88 360,93" stroke-width="0.26" opacity="0.21"/>
  <path d="M145,84 Q215,79 268,81 Q305,79 350,83" stroke-width="0.24" opacity="0.18"/>
  <path d="M162,75 Q225,71 262,73 Q298,71 338,74" stroke-width="0.22" opacity="0.15"/>
  <!-- Cross-hatching shadows -->
  <path d="M58,215 L78,200" stroke-width="0.32" opacity="0.38"/>
  <path d="M68,218 L88,203" stroke-width="0.3" opacity="0.35"/>
  <path d="M78,220 L98,206" stroke-width="0.28" opacity="0.32"/>
  <path d="M330,215 L348,200" stroke-width="0.32" opacity="0.38"/>
  <path d="M338,217 L355,204" stroke-width="0.3" opacity="0.35"/>
  <path d="M346,219 L360,206" stroke-width="0.28" opacity="0.32"/>
  <!-- Underside shadow hatching -->
  <path d="M155,215 L172,205" stroke-width="0.24" opacity="0.28"/>
  <path d="M168,217 L185,207" stroke-width="0.24" opacity="0.26"/>
  <path d="M180,218 L198,209" stroke-width="0.24" opacity="0.24"/>
  <!-- Stipple in highlights -->
  <circle cx="165" cy="48" r="0.7" fill="#3D3730" opacity="0.14"/>
  <circle cx="185" cy="44" r="0.6" fill="#3D3730" opacity="0.12"/>
  <circle cx="205" cy="40" r="0.7" fill="#3D3730" opacity="0.13"/>
  <circle cx="225" cy="42" r="0.6" fill="#3D3730" opacity="0.11"/>
  <circle cx="248" cy="45" r="0.7" fill="#3D3730" opacity="0.1"/>
  <circle cx="270" cy="48" r="0.6" fill="#3D3730" opacity="0.09"/>
  <circle cx="145" cy="62" r="0.5" fill="#3D3730" opacity="0.12"/>
  <circle cx="290" cy="52" r="0.5" fill="#3D3730" opacity="0.08"/>
  <circle cx="130" cy="72" r="0.5" fill="#3D3730" opacity="0.11"/>
  <circle cx="310" cy="60" r="0.5" fill="#3D3730" opacity="0.08"/>
  <circle cx="195" cy="52" r="0.5" fill="#3D3730" opacity="0.1"/>
  <circle cx="240" cy="50" r="0.5" fill="#3D3730" opacity="0.09"/>
</svg>
