<svg xmlns="http://www.w3.org/2000/svg" viewBox="0 0 520 340">
  <!-- Bold woodcut cloud — solid fill with white line shading carved in -->
  <path d="M55,265 C22,262 8,240 12,215 C-2,195 5,168 32,152 C18,128 35,100 68,88
           C72,55 108,35 148,40 C162,18 198,8 238,18 C260,2 298,0 325,15
           C348,4 378,8 398,30 C425,18 455,28 465,55
           C492,48 510,70 505,98 C522,118 518,150 495,168
           C512,190 506,215 485,230 C498,252 482,268 455,262
           C445,278 418,272 405,258 C385,270 355,268 340,258
           C320,272 290,268 275,258 C248,270 218,266 200,255
           C178,268 148,264 132,252 C110,266 80,264 68,255 Z"
        fill="#2A2520"/>
  <!-- White hatching lines — woodcut shading -->
  <g stroke="#FAF7F2" fill="none" stroke-linecap="round">
    <!-- Major horizontal contour lines -->
    <path d="M75,235 C130,218 220,222 340,218 C400,220 445,228 470,238" stroke-width="2.8"/>
    <path d="M62,212 C140,194 250,198 365,195 C420,198 465,205 488,215" stroke-width="2.5"/>
    <path d="M55,190 C148,170 268,175 380,172 C435,175 475,182 498,190" stroke-width="2.3"/>
    <path d="M60,168 C155,150 278,154 390,150 C440,152 482,160 500,168" stroke-width="2"/>
    <path d="M72,148 C165,132 285,136 395,132 C445,134 485,140 502,148" stroke-width="1.8"/>
    <path d="M85,130 C178,115 290,118 398,115 C445,118 486,122 500,128" stroke-width="1.6"/>
    <path d="M102,112 C192,100 298,103 400,100 C442,102 480,106 496,110" stroke-width="1.4"/>
    <path d="M122,96 C208,86 305,89 398,86 C438,88 472,92 490,95" stroke-width="1.2"/>
    <path d="M148,82 C225,74 312,76 392,74 C430,76 460,78 478,82" stroke-width="1"/>
    <path d="M175,70 C242,64 318,66 382,64 C418,66 448,68 462,70" stroke-width="0.8"/>
    <path d="M205,58 C258,54 322,56 370,54 C400,56 428,58 445,60" stroke-width="0.7"/>
    <!-- Deep shadow cross-hatching bottom-left -->
    <path d="M35,252 L70,228" stroke-width="2"/>
    <path d="M48,258 L85,232" stroke-width="1.8"/>
    <path d="M62,262 L100,238" stroke-width="1.6"/>
    <path d="M78,264 L112,242" stroke-width="1.4"/>
    <!-- Deep shadow cross-hatching bottom-right -->
    <path d="M430,252 L462,230" stroke-width="2"/>
    <path d="M442,256 L472,236" stroke-width="1.8"/>
    <path d="M455,258 L480,240" stroke-width="1.6"/>
    <!-- Mid shadow cross-hatching center-bottom -->
    <path d="M200,250 L228,234" stroke-width="1.2"/>
    <path d="M215,252 L242,238" stroke-width="1.1"/>
    <path d="M230,254 L255,240" stroke-width="1"/>
    <path d="M300,252 L325,238" stroke-width="1.2"/>
    <path d="M315,254 L338,240" stroke-width="1.1"/>
    <!-- Puff definition lines -->
    <path d="M148,40 C158,52 142,68 128,72" stroke-width="1.5"/>
    <path d="M238,18 C252,32 240,48 225,55" stroke-width="1.4"/>
    <path d="M325,15 C340,28 332,45 318,52" stroke-width="1.3"/>
    <path d="M398,30 C412,42 405,58 392,64" stroke-width="1.2"/>
    <path d="M465,55 C475,68 468,82 455,88" stroke-width="1.1"/>
  </g>
</svg>
