<svg xmlns="http://www.w3.org/2000/svg" viewBox="0 0 440 290">
  <!-- Smaller complementary woodcut cloud -->
  <path d="M48,228 C18,225 5,208 10,185 C-4,168 8,145 30,132
           C20,112 35,88 62,78 C68,50 100,32 132,36
           C148,16 180,8 212,16 C232,2 262,2 285,14
           C305,4 332,10 348,28 C370,20 395,30 402,52
           C425,48 438,65 434,88 C448,105 442,132 422,145
           C435,162 430,185 412,196 C422,215 408,230 385,225
           C375,238 352,232 342,222 C325,234 300,230 288,222
           C270,232 245,228 230,220 C212,230 188,228 172,218
           C155,228 132,226 120,218 C100,228 75,226 62,220 Z"
        fill="#2A2520"/>
  <g stroke="#FAF7F2" fill="none" stroke-linecap="round">
    <path d="M65,205 C118,190 200,194 300,190 C350,192 390,198 405,206" stroke-width="2.5"/>
    <path d="M55,185 C125,170 218,174 318,170 C365,172 400,178 418,185" stroke-width="2.2"/>
    <path d="M50,165 C130,150 230,154 330,150 C375,152 408,158 425,165" stroke-width="2"/>
    <path d="M55,146 C138,132 240,136 338,132 C380,134 412,140 428,146" stroke-width="1.8"/>
    <path d="M62,128 C148,115 248,118 345,115 C382,118 415,122 430,128" stroke-width="1.6"/>
    <path d="M75,112 C158,100 255,103 348,100 C382,102 412,106 426,110" stroke-width="1.4"/>
    <path d="M90,96 C170,86 262,89 348,86 C378,88 405,92 420,95" stroke-width="1.2"/>
    <path d="M108,82 C185,74 270,77 342,74 C372,76 398,79 412,82" stroke-width="1"/>
    <path d="M130,70 C200,63 278,66 335,64 C362,66 388,68 400,70" stroke-width="0.8"/>
    <path d="M155,58 C215,53 282,56 328,54 C352,56 375,58 386,60" stroke-width="0.7"/>
    <!-- Shadow hatching bottom-left -->
    <path d="M28,218 L58,198" stroke-width="1.8"/>
    <path d="M40,222 L70,202" stroke-width="1.6"/>
    <path d="M52,225 L82,206" stroke-width="1.4"/>
    <!-- Shadow hatching bottom-right -->
    <path d="M368,218 L395,200" stroke-width="1.8"/>
    <path d="M378,222 L402,205" stroke-width="1.6"/>
    <path d="M388,224 L410,208" stroke-width="1.4"/>
    <!-- Center shadow -->
    <path d="M175,218 L200,204" stroke-width="1.1"/>
    <path d="M188,220 L212,207" stroke-width="1"/>
    <path d="M260,220 L282,207" stroke-width="1.1"/>
    <!-- Puff lines -->
    <path d="M132,36 C142,48 130,62 118,66" stroke-width="1.3"/>
    <path d="M212,16 C224,28 215,42 202,48" stroke-width="1.2"/>
    <path d="M285,14 C298,25 290,40 278,46" stroke-width="1.1"/>
    <path d="M348,28 C358,40 352,52 340,58" stroke-width="1"/>
    <path d="M402,52 C410,62 405,74 395,78" stroke-width="0.9"/>
  </g>
</svg>
